<svg width="256" height="256" viewBox="0 0 256 256" fill="current" xmlns="http://www.w3.org/2000/svg">
<path d="M128.001 3C57.3173 3 0 60.3067 0 131.001C0 187.555 36.6762 235.536 87.5349 252.461C93.932 253.646 96.2806 249.684 96.2806 246.303C96.2806 243.251 96.1619 233.168 96.1068 222.472C60.4968 230.215 52.9826 207.37 52.9826 207.37C47.16 192.575 38.7704 188.641 38.7704 188.641C27.1569 180.696 39.6458 180.859 39.6458 180.859C52.4993 181.762 59.2674 194.05 59.2674 194.05C70.6838 213.618 89.2116 207.961 96.5159 204.69C97.6647 196.418 100.982 190.771 104.643 187.574C76.2118 184.338 46.3248 173.362 46.3248 124.316C46.3248 110.341 51.3251 98.9224 59.5132 89.9584C58.1842 86.7344 53.8029 73.7156 60.7532 56.0844C60.7532 56.0844 71.5019 52.6442 95.9626 69.205C106.173 66.3689 117.123 64.9466 128.001 64.8978C138.879 64.9466 149.838 66.3689 160.067 69.205C184.498 52.6442 195.232 56.0844 195.232 56.0844C202.199 73.7156 197.816 86.7344 196.487 89.9584C204.694 98.9224 209.66 110.341 209.66 124.316C209.66 173.479 179.716 184.304 151.213 187.473C155.804 191.445 159.895 199.235 159.895 211.177C159.895 228.303 159.747 242.087 159.747 246.303C159.747 249.71 162.051 253.701 168.539 252.444C219.37 235.5 256 187.536 256 131.001C256 60.3067 198.691 3 128.001 3ZM47.9406 185.34C47.6586 185.976 46.6582 186.167 45.7467 185.73C44.8183 185.313 44.2969 184.446 44.5979 183.808C44.8734 183.153 45.876 182.97 46.8023 183.409C47.7328 183.827 48.2627 184.702 47.9406 185.34ZM54.2368 190.958C53.6263 191.524 52.433 191.261 51.6233 190.367C50.786 189.474 50.6292 188.281 51.2481 187.707C51.8776 187.141 53.0349 187.406 53.8743 188.298C54.7116 189.201 54.8748 190.386 54.2368 190.958ZM58.5562 198.146C57.772 198.691 56.4896 198.18 55.6968 197.042C54.9126 195.904 54.9126 194.539 55.7138 193.992C56.5087 193.445 57.772 193.937 58.5753 195.066C59.3575 196.224 59.3575 197.589 58.5562 198.146ZM65.8614 206.471C65.1598 207.245 63.6654 207.037 62.5717 205.982C61.4525 204.949 61.1409 203.485 61.8446 202.711C62.5547 201.935 64.0575 202.153 65.1598 203.201C66.2705 204.231 66.6096 205.706 65.8614 206.471ZM75.3025 209.282C74.993 210.284 73.5538 210.74 72.104 210.314C70.6563 209.875 69.7088 208.701 70.0013 207.688C70.3023 206.679 71.7479 206.204 73.2083 206.66C74.6539 207.096 75.6035 208.262 75.3025 209.282ZM86.0469 210.474C86.083 211.529 84.8536 212.405 83.3317 212.424C81.8013 212.458 80.5634 211.603 80.5465 210.565C80.5465 209.499 81.7483 208.632 83.2787 208.606C84.8006 208.577 86.0469 209.424 86.0469 210.474ZM96.6021 210.069C96.7844 211.099 95.7267 212.157 94.2154 212.439C92.7296 212.71 91.3539 212.074 91.1653 211.053C90.9809 209.997 92.0576 208.939 93.5414 208.666C95.0548 208.403 96.4093 209.022 96.6021 210.069Z" fill="current"/>
</svg>
