<svg width="256" height="256" viewBox="0 0 256 256" fill="current" xmlns="http://www.w3.org/2000/svg">
<path d="M256 48.628C246.581 52.8053 236.458 55.6285 225.834 56.8982C236.678 50.3978 245.006 40.105 248.927 27.8411C238.78 33.8593 227.539 38.2303 215.576 40.5863C205.995 30.3787 192.345 24 177.239 24C148.233 24 124.716 47.5156 124.716 76.5203C124.716 80.6367 125.181 84.6454 126.077 88.4893C82.4258 86.299 43.7257 65.3894 17.8214 33.6139C13.3005 41.371 10.7104 50.3931 10.7104 60.0183C10.7104 78.2395 19.9835 94.3155 34.0762 103.734C25.4661 103.461 17.3682 101.099 10.2863 97.1649C10.2825 97.384 10.2825 97.6041 10.2825 97.8251C10.2825 123.272 28.3867 144.5 52.4136 149.325C48.006 150.525 43.3662 151.167 38.5756 151.167C35.1915 151.167 31.901 150.838 28.6948 150.225C35.3778 171.091 54.7742 186.276 77.757 186.7C59.782 200.786 37.1354 209.183 12.5289 209.183C8.28987 209.183 4.10888 208.934 0 208.449C23.2431 223.351 50.8507 232.046 80.5109 232.046C177.117 232.046 229.944 152.015 229.944 82.6106C229.944 80.3333 229.893 78.0682 229.792 75.8161C240.053 68.4112 248.958 59.1606 256 48.628Z" fill="current"/>
</svg>
